<svg xmlns="http://www.w3.org/2000/svg" width="150" height="182" viewBox="0 0 150 182">
  <g class="letter__bg" id="letter__bg">
    <path class="letter__bg__item letter__bg__outer" id="letter__outer" fill="#3C3C3B" d="M145.54 138.64c-4.506-2.819-8.726-10.665-10.404-16.591l-23.359-89.946s-.266-1.61-.539-2.07C110.72 29.157 83.591.771 82.851.38c-.705-.373-33.923-.622-34.729 0-.793.612-27.64 102.888-27.64 102.888-5.466 19.966-8.64 21.51-8.97 21.614 0 0-10.425 2.88-11.122 3.711-.472.563-.529 25.78-.098 26.538.915 1.611 16.919 24.28 19.191 25.492 1.29.687 129.43.727 129.925.098 1.049-1.335.48-39.064 0-39.665-.563-.702-3.867-2.414-3.867-2.414z"/>
    <path class="letter__bg__item letter__bg__middle" id="letter_middle" fill="#A3B883" d="M144.112 140.925c-5.137-3.213-9.706-11.56-11.576-18.17l-23.367-89.973-.362-1.395-.995-1.04L83.336 4.78l-1.633-1.706H50.187l-1.101 4.098-26.004 96.8c-1.481 5.413-6.012 21.96-10.764 23.481l-5.623 1.73-3.905 1.202v23.848l1.106 1.476 15.078 20.103 1.66 2.213h126.079v-35.476l-2.6-1.624z"/>
    <path class="letter__bg__item letter__bg__inner" id="letter_inner" fill="#FFFFFF" d="M79.34 8.606l24.474 25.566 23.38 90.029c1.968 6.992 6.993 17.042 13.986 21.414v26.877H84.585l-5.681-7.65v7.65H23.4L8.322 152.388V134.47l5.682-1.749c5.463-1.747 9.396-8.96 14.422-27.314l26.003-96.8h24.91z"/>
  </g>
  <g id="letter">
    <path d="M79.339 8.606l24.475 25.566 23.38 90.029c1.967 6.992 6.992 17.042 13.986 21.414v26.877H84.584l-5.68-7.65v7.65H23.4L8.322 152.388V134.47l5.682-1.749c5.462-1.747 9.396-8.96 14.422-27.314L54.429 8.606h24.91zm-3.059 97.02l1.531 6.556c3.496 16.606.874 22.288-4.808 24.036l-5.681 1.53v12.455h53.754v-12.455l-6.119-2.405c-3.713-1.31-7.429-7.647-11.362-22.942L77.811 12.54H57.488l-25.13 92.866c-6.117 22.507-9.832 29.063-15.295 30.811l-4.808 1.53v12.455h46.327v-12.455l-5.683-1.53c-4.807-1.748-8.085-11.143-4.807-24.036l1.748-6.556h26.44zM60.766 16.253h13.767L90.92 78.968c-2.62-1.748-5.243-1.748-7.866 0 1.312 2.84 4.808 7.43 8.523 10.708-1.093 8.958-1.53 18.134 1.094 35.835-5.683-17.7-9.179-25.783-15.079-35.835 2.185-3.278 4.588-7.867 4.807-10.708-3.279-1.748-6.119-1.748-7.866 0l-9.397-43.485H64.7L52.9 78.968c-2.623-1.748-5.682-1.748-8.96 0l16.826-62.715zm-5.9 69.926l9.177-33.433h.876l7.21 33.433H54.865zm28.188-7.43c0-7.647.873-12.018 2.185-15.296-3.932-5.244-7.212-13.11-13.11-29.5 1.966 16.39 1.748 24.256.656 29.5 3.276 3.278 6.335 7.649 9.614 15.297h.655z"/>
  </g>
</svg>
