<svg version="1" xmlns="http://www.w3.org/2000/svg" width="888" height="888" viewBox="0 0 666.000000 666.000000"><path d="M237.7 7.2c-2.8 2.2-17.6 56.4-78.2 285.8-30 113.8-34.3 128-44.6 148.1-5.8 11.2-7.2 12.2-23.4 17-7.7 2.2-16.7 5.2-20.1 6.5l-6.1 2.5-.7 6.7c-1 10.6-.7 84.4.3 88 1.7 5.6 51.5 74.5 63.9 88.2l4.9 5.5 41.4.7c51.6.8 366.3.7 400.9-.1l25.5-.6.7-4.5c1-5.9 1.1-104.2.2-123.3-.8-17.1-.3-16.1-11.5-22.3-14-7.7-27.2-25.4-36.8-49.6-1.6-4-22.3-82.2-46-173.8-23.8-91.6-43.7-167.5-44.4-168.7-1.4-2.5-19.7-22-66.3-70.4-30.8-32.1-34.6-35.7-38.1-36.2-2.1-.4-29.9-.7-61.9-.7-44.9 0-58.4.3-59.7 1.2zm152.7 226.6c25.8 99.9 48.6 187.8 50.8 195.2 9.8 33.8 21.7 56.4 32.7 61.9 2 1 8.4 3.8 14.4 6.1l10.7 4.2V545H307v-21.9c0-20.1.2-22 1.8-22.5.9-.3 5.9-1.7 11.1-3.1 12.2-3.4 15.9-5.4 21-11.1 11.8-13.4 11.9-40.9.5-90.2l-2.6-11.2-48.1.2-48.1.3-4.2 16.5c-5.6 21.6-6.8 31.3-6.1 47.5.7 14.8 2.4 22.1 7.4 31.8 4.6 8.7 9.6 13 17.6 15.2 3.4.9 8.6 2.3 11.5 3.2l5.2 1.4V545H109v-43.8l9.8-3.2c5.3-1.8 11.6-4.3 13.8-5.6 13.2-7.5 25.4-30.6 38.2-72.4 6.3-20.5 4.3-13.3 56.2-205 23.7-87.7 43.3-160.3 43.6-161.3.5-1.6 3.1-1.7 36.7-1.7h36.2l46.9 181.8z"/><path d="M281.6 65.7c-4.3 14.5-59.7 223.5-59.4 223.8.3.3 2.7-.4 5.4-1.6 6.8-3.1 16.4-3 22.2 0 2.4 1.2 4.6 2.1 4.8 1.9.2-.2 9.6-34.6 20.9-76.4 11.3-41.7 20.9-76.8 21.4-77.9.9-2.3-.8-9.8 19.2 83 8.4 39 15.3 71.1 15.4 71.3.2.2 2-.7 4.1-2 4.7-2.8 11.8-2.8 18.9-.1 4.6 1.7 5 2.1 4.7 4.8-.6 4.8-5.8 17.1-11.2 26.2-2.8 4.7-5 8.9-5 9.4s2.1 4.7 4.7 9.2c14.7 26 28.7 58.8 41.5 97.4 4 12.2 7.5 22.2 7.8 22.3.3 0-.5-7.9-1.7-17.7-3.8-30.3-4.6-46.4-3.9-73.6.3-13.9 1-27.9 1.5-31.2l.8-6-7.3-7.7c-8-8.5-18.7-22.4-21.3-27.6-1.5-3.2-1.4-3.5.3-4.7 5.2-3.8 15.3-3.8 22.9.1 1.5.8 2.7 1.1 2.7.7.1-.5-13.1-51.3-29.2-113L332.5 64h-25.2c-23.1 0-25.2.1-25.7 1.7zm61.3 115.8c6.6 16.5 16.6 37 22.4 45.9l4.5 6.9-1.9 5.6c-2.7 7.6-4.7 20.7-5.5 35.6-.4 6.9-1 12.5-1.3 12.5-.3 0-3.1-5.3-6.1-11.7-6.2-13.1-16.3-29-23.7-37.3l-5-5.4 1.1-4.6c1.7-7.5 1.2-58.2-.7-76-.9-8.5-1.7-16.2-1.7-17 .1-.8 2.9 6.1 6.4 15.5 3.5 9.3 8.7 22.8 11.5 30z"/><path d="M293.5 196.2c-.9 2.7-32.5 118.6-32.5 119.2 0 .3 14.2.6 31.6.6h31.6l-.6-2.5c-.4-1.4-6-27.5-12.6-58s-12.2-56.6-12.6-58c-.7-2.6-4.1-3.5-4.9-1.3z"/></svg>