<svg class="svg-icon-lib" xmlns="http://www.w3.org/2000/svg">
<symbol id="icon-clock-o" viewBox="0 0 27 32"><title>Icon clock-o</title><path d="M16 9.714v8c0 .321-.25.571-.571.571H9.715a.564.564 0 0 1-.571-.571v-1.143c0-.321.25-.571.571-.571h4V9.714c0-.321.25-.571.571-.571h1.143c.321 0 .571.25.571.571zM23.429 16c0-5.357-4.357-9.714-9.714-9.714S4.001 10.643 4.001 16s4.357 9.714 9.714 9.714 9.714-4.357 9.714-9.714zm4 0c0 7.571-6.143 13.714-13.714 13.714S.001 23.571.001 16 6.144 2.286 13.715 2.286 27.429 8.429 27.429 16z"/></symbol>
<symbol id="icon-file-o" viewBox="0 0 27 32"><title>Icon file-o</title><path d="M26.214 6.786c.661.661 1.214 1.982 1.214 2.929v20.571c0 .946-.768 1.714-1.714 1.714h-24A1.715 1.715 0 0 1 0 30.286V1.715C0 .769.768.001 1.714.001h16c.946 0 2.268.554 2.929 1.214zm-7.928-4.357v6.714H25c-.107-.304-.268-.607-.393-.732l-5.589-5.589c-.125-.125-.429-.286-.732-.393zm6.857 27.285V11.428h-7.429A1.715 1.715 0 0 1 16 9.714V2.285H2.286v27.429h22.857z"/></symbol>
<symbol id="icon-wrench" viewBox="0 0 30 32"><title>Icon wrench</title><path d="M6.857 26.286c0-.625-.518-1.143-1.143-1.143s-1.143.518-1.143 1.143.518 1.143 1.143 1.143 1.143-.518 1.143-1.143zm11.5-7.5L6.178 30.965c-.411.411-1 .661-1.607.661s-1.196-.25-1.625-.661l-1.893-1.929c-.429-.411-.679-1-.679-1.607s.25-1.196.679-1.625l12.161-12.161a9.217 9.217 0 0 0 5.143 5.143zm11.322-7.768c0 .589-.214 1.321-.411 1.893-1.125 3.179-4.179 5.375-7.554 5.375-4.411 0-8-3.589-8-8s3.589-8 8-8c1.304 0 3 .393 4.089 1.125.179.125.286.286.286.5a.636.636 0 0 1-.286.5l-5.232 3.018v4l3.446 1.911c.589-.339 4.732-2.946 5.089-2.946s.571.268.571.625z"/></symbol>
</svg>