<svg class="svg-icon-lib" xmlns="http://www.w3.org/2000/svg">
<symbol id="icon-clock-o" viewBox="0 0 27 32"><title>Icon clock-o</title><path d="M16 9.714v8c0 .321-.25.571-.571.571H9.715a.564.564 0 0 1-.571-.571v-1.143c0-.321.25-.571.571-.571h4V9.714c0-.321.25-.571.571-.571h1.143c.321 0 .571.25.571.571zM23.429 16c0-5.357-4.357-9.714-9.714-9.714S4.001 10.643 4.001 16s4.357 9.714 9.714 9.714 9.714-4.357 9.714-9.714zm4 0c0 7.571-6.143 13.714-13.714 13.714S.001 23.571.001 16 6.144 2.286 13.715 2.286 27.429 8.429 27.429 16z"/></symbol>
<symbol id="icon-file-o" viewBox="0 0 27 32"><title>Icon file-o</title><path d="M26.214 6.786c.661.661 1.214 1.982 1.214 2.929v20.571c0 .946-.768 1.714-1.714 1.714h-24A1.715 1.715 0 0 1 0 30.286V1.715C0 .769.768.001 1.714.001h16c.946 0 2.268.554 2.929 1.214zm-7.928-4.357v6.714H25c-.107-.304-.268-.607-.393-.732l-5.589-5.589c-.125-.125-.429-.286-.732-.393zm6.857 27.285V11.428h-7.429A1.715 1.715 0 0 1 16 9.714V2.285H2.286v27.429h22.857z"/></symbol>
<symbol id="icon-linkedin-square" viewBox="0 0 24 28"><title>Icon linkedin-square</title><path d="M3.703 22.094h3.609V11.25H3.703v10.844zM7.547 7.906c-.016-1.062-.781-1.875-2.016-1.875s-2.047.812-2.047 1.875c0 1.031.781 1.875 2 1.875H5.5c1.266 0 2.047-.844 2.047-1.875zm9.141 14.188h3.609v-6.219c0-3.328-1.781-4.875-4.156-4.875-1.937 0-2.797 1.078-3.266 1.828h.031V11.25H9.297s.047 1.016 0 10.844h3.609v-6.062c0-.313.016-.641.109-.875.266-.641.859-1.313 1.859-1.313 1.297 0 1.813.984 1.813 2.453v5.797zM24 6.5v15c0 2.484-2.016 4.5-4.5 4.5h-15A4.502 4.502 0 0 1 0 21.5v-15C0 4.016 2.016 2 4.5 2h15C21.984 2 24 4.016 24 6.5z"/></symbol>
<symbol id="icon-mark-github" viewBox="0 0 32 32"><title>Icon mark-github</title><path d="M16-.286c-8.836 0-16 7.164-16 16 0 7.07 4.584 13.066 10.942 15.182.8.146 1.092-.348 1.092-.77 0-.381-.015-1.643-.022-2.979-4.449.967-5.39-1.887-5.39-1.887-.729-1.848-1.776-2.34-1.776-2.34-1.454-.992.11-.973.11-.973 1.606.111 2.452 1.648 2.452 1.648 1.428 2.445 3.746 1.738 4.656 1.328.145-1.031.559-1.738 1.016-2.137-3.552-.404-7.288-1.777-7.288-7.908 0-1.748.624-3.174 1.646-4.294-.163-.406-.714-2.034.158-4.236 0 0 1.342-.43 4.4 1.641A15.255 15.255 0 0 1 16 7.451c1.359.006 2.729.184 4.006.54 3.053-2.072 4.396-1.641 4.396-1.641.875 2.204.324 3.83.16 4.234 1.025 1.12 1.645 2.546 1.645 4.294 0 6.146-3.742 7.5-7.307 7.896.576.496 1.086 1.469 1.086 2.961 0 2.139-.021 3.863-.021 4.391 0 .426.291.924 1.102.768 6.354-2.119 10.934-8.115 10.934-15.182 0-8.836-7.164-16-16-16z"/></symbol>
<symbol id="icon-stack-overflow" viewBox="0 0 27 32"><title>Icon stack-overflow</title><path d="M23.018 29.143H3.054v-8.571H.197v11.429h25.679V20.572h-2.857v8.571zM6.196 19.786l.589-2.804 13.982 2.946-.589 2.786zm1.84-6.679L9.232 10.5l12.946 6.054-1.196 2.589zm3.589-6.357 1.821-2.196 10.964 9.161-1.821 2.196zM18.714 0l8.518 11.446-2.286 1.714-8.518-11.446zM5.893 26.268v-2.839h14.286v2.839H5.893z"/></symbol>
<symbol id="icon-wrench" viewBox="0 0 30 32"><title>Icon wrench</title><path d="M6.857 26.286c0-.625-.518-1.143-1.143-1.143s-1.143.518-1.143 1.143.518 1.143 1.143 1.143 1.143-.518 1.143-1.143zm11.5-7.5L6.178 30.965c-.411.411-1 .661-1.607.661s-1.196-.25-1.625-.661l-1.893-1.929c-.429-.411-.679-1-.679-1.607s.25-1.196.679-1.625l12.161-12.161a9.217 9.217 0 0 0 5.143 5.143zm11.322-7.768c0 .589-.214 1.321-.411 1.893-1.125 3.179-4.179 5.375-7.554 5.375-4.411 0-8-3.589-8-8s3.589-8 8-8c1.304 0 3 .393 4.089 1.125.179.125.286.286.286.5a.636.636 0 0 1-.286.5l-5.232 3.018v4l3.446 1.911c.589-.339 4.732-2.946 5.089-2.946s.571.268.571.625z"/></symbol>
<symbol id="icon-xing" viewBox="0 0 25 32"><title>Icon xing</title><path d="M10.661 11.911s-.179.304-4.589 8.143c-.232.393-.536.821-1.161.821H.643c-.25 0-.446-.125-.554-.304s-.125-.411 0-.643l4.518-8c.018 0 .018 0 0-.018L1.732 6.928c-.125-.232-.143-.482-.018-.661.107-.179.321-.268.571-.268h4.268c.643 0 .964.429 1.179.804 2.911 5.089 2.929 5.107 2.929 5.107zM25.054.446c.125.179.125.429 0 .661l-9.429 16.679c-.018 0-.018.018 0 .018l6 10.982c.125.232.125.482.018.661-.125.179-.321.268-.571.268h-4.268c-.643 0-.982-.429-1.179-.804-6.054-11.089-6.054-11.107-6.054-11.107s.304-.536 9.482-16.821c.232-.411.5-.804 1.143-.804H24.5c.25 0 .446.089.554.268z"/></symbol>
</svg>